<?xml version="1.0" encoding="UTF-8"?>
<svg id="Layer_1" data-name="Layer 1" xmlns="http://www.w3.org/2000/svg" viewBox="0 0 1920 1080">
  <g>
    <g>
      <path d="M1018.22,471.73c0-28.98,21.83-48.29,45.91-48.29,18.31,0,26.34,7.28,28.98,7.28,1.63,0,2.51-1.13,3.01-6.02h.75l3.14,26.22h-.88c-6.4-18.94-20.7-25.34-35-25.34-20.57,0-37.51,16.56-37.51,42.52,0,28.35,17.06,45.16,38.88,45.16,15.93,0,28.22-10.03,35.75-24.71l1.13.5c-7.28,16.18-21.32,28.22-41.02,28.22-23.58,0-43.15-18.19-43.15-45.53Z"/>
      <path d="M1061.37,518.96c-25.57,0-44.85-20.31-44.85-47.23,0-14.07,5.12-26.93,14.42-36.22,8.9-8.88,20.69-13.78,33.19-13.78,13.67,0,21.83,3.97,26.22,6.1,1.11.54,2.37,1.15,2.76,1.18.56,0,1-1.51,1.31-4.49l.16-1.53h3.8l3.54,29.62h-4.01l-.39-1.16c-6.75-19.99-21.88-24.18-33.39-24.18-20.75,0-35.8,17.17-35.8,40.82,0,25.99,14.94,43.46,37.18,43.46,14.21,0,26.37-8.45,34.24-23.79l.73-1.43,4.16,1.85-.7,1.56c-8.35,18.57-23.87,29.23-42.57,29.23ZM1040.67,431.93c-13.29,8.67-20.75,24.41-20.75,39.8,0,24.99,17.82,43.83,41.45,43.83,3,0,5.91-.3,8.71-.88-1.5.18-3.03.27-4.57.27-24.28,0-40.58-18.83-40.58-46.86,0-15.46,6-28.36,15.75-36.16ZM1083.53,428.53c5.69,3.15,10.33,7.86,13.76,13.99l-1.35-11.3c-.66.75-1.57,1.2-2.83,1.2-1.12,0-2.36-.6-4.24-1.52-1.37-.67-3.13-1.52-5.33-2.37Z"/>
    </g>
    <g>
      <path d="M1112.42,471.48c0-28.72,20.32-48.04,45.53-48.04s44.4,18.31,44.4,45.78-20.57,48.04-46.16,48.04-43.78-18.31-43.78-45.78ZM1158.2,515.13c20.2,0,35.75-17.06,35.75-42.9s-16.06-46.66-37.88-46.66c-19.94,0-35.25,17.19-35.25,42.9s16.06,46.66,37.38,46.66Z"/>
      <path d="M1156.2,518.96c-26.35,0-45.48-19.97-45.48-47.48s19.86-49.74,47.23-49.74,46.1,19.97,46.1,47.48-20.13,49.74-47.86,49.74ZM1133.85,432.09c-12.15,7.96-19.73,22.16-19.73,39.39,0,21.34,12.35,37.78,30.62,42.62-15.25-6.5-25.62-23.97-25.62-45.63,0-15.53,5.61-28.5,14.73-36.38ZM1156.07,427.27c-19.44,0-33.55,17.33-33.55,41.2,0,25.63,15.34,44.96,35.68,44.96s34.05-16.94,34.05-41.2c0-26.05-15.22-44.96-36.18-44.96ZM1169.91,426.69c15.33,6.57,25.74,23.98,25.74,45.54,0,15.38-5.58,28.25-14.67,36.15,12.12-8,19.67-22.1,19.67-39.16,0-21.21-12.38-37.58-30.74-42.53Z"/>
    </g>
    <g>
      <path d="M1221.23,502.96v-65.23c0-9.53-2.26-11.54-11.92-12.17v-.88h18.44l54.82,77.9v-64.85c0-9.53-2.26-11.54-15.43-12.17v-.88h29.98v.88c-9.66.63-11.92,2.63-11.92,12.17v79.53h-.88l-60.46-84.92v70.62c0,9.53,2.26,11.54,15.43,12.17v.88h-29.98v-.88c9.66-.63,11.92-2.63,11.92-12.17Z"/>
      <path d="M1286.91,518.96h-3.46l-57.88-81.3v65.3c0,8.2,1.11,9.86,13.81,10.47l1.62.08v4.2h-33.38v-4.17l1.59-.1c8.98-.58,10.33-1.95,10.33-10.47v-65.23c0-8.52-1.35-9.89-10.33-10.47l-1.59-.1v-4.17h21.02l52.23,74.22v-59.48c0-8.2-1.11-9.87-13.81-10.47l-1.62-.08v-4.2h33.38v4.17l-1.59.1c-8.98.58-10.33,1.95-10.33,10.47v81.23ZM1219.28,514.31h7.16c-2.07-1.28-3.28-3.21-3.85-6.15-.48,2.86-1.49,4.82-3.31,6.15ZM1222.17,427.02l61.34,86.15v-6.3l-56.63-80.48h-7.6c1.4,1.02,2.32,2.42,2.89,4.32v-3.69ZM1280,426.39c2.07,1.28,3.28,3.21,3.85,6.15.48-2.87,1.49-4.82,3.31-6.15h-7.16Z"/>
    </g>
    <g>
      <path d="M1334.55,509.11v-82.41h-11.16c-13.42,0-17.06,2.76-22.83,18.06h-.75l4.14-20.82c2.51.5,6.77.75,11.79.75h44.91c5.02,0,9.28-.25,11.79-.75l4.26,20.82h-.88c-5.77-15.3-9.41-18.06-22.71-18.06h-11.16v82.41c0,4.77,1.76,5.52,10.54,6.02v.88h-28.47v-.88c8.78-.5,10.54-1.25,10.54-6.02Z"/>
      <path d="M1354.19,517.71h-31.88v-4.18l1.6-.09c8.93-.51,8.93-1.24,8.93-4.32v-80.71h-9.46c-12.76,0-15.74,2.38-21.24,16.96l-.42,1.1h-4l4.88-24.52,1.67.33c2.32.46,6.39.72,11.46.72h44.91c5.07,0,9.14-.26,11.46-.72l1.66-.33,5.02,24.52h-4.14l-.42-1.1c-5.5-14.58-8.46-16.96-21.11-16.96h-9.46v80.71c0,3.08,0,3.81,8.93,4.32l1.6.09v4.18ZM1334.59,514.31h7.32c-1.1-1.1-1.66-2.74-1.66-5.2v-82.72h-4v82.72c0,2.46-.56,4.09-1.66,5.2ZM1364.18,426.35c3.6,1.25,6.18,3.54,8.55,7.49l-1.63-7.96c-1.83.24-4.18.4-6.92.47ZM1305.29,425.88l-1.56,7.84c2.35-3.87,4.93-6.12,8.51-7.36-2.75-.07-5.12-.23-6.95-.47Z"/>
    </g>
    <g>
      <path d="M1437.81,507.6l-9.78-27.47h-32.74l-8.4,23.71c-2.63,7.15-1.13,10.66,9.53,11.29v.88h-25.21v-.88c6.15-.63,9.79-3.26,13.05-11.92l25.59-72.25-1.76-4.77c2.38-.63,5.39-2.01,6.9-4.01h.63c1,4.52,1.63,6.4,4.64,14.55l24.21,67.74c3.26,8.65,4.39,10.04,12.54,10.66v.88h-28.6v-.88c10.54-.13,11.41-1.76,9.41-7.53ZM1427.27,477.88l-15.55-44.15-15.68,44.15h31.23Z"/>
      <path d="M1458.7,517.71h-32v-4.26l1.68-.02c1.86-.02,7.54-.09,8.43-1.36.45-.64-.13-2.53-.61-3.9l-9.38-26.33h-30.34l-8,22.57c-1.16,3.16-1.34,5.18-.55,6.37.97,1.48,3.86,2.37,8.58,2.65l1.6.09v4.18h-28.62v-4.11l1.53-.16c5.09-.52,8.45-2.4,11.63-10.82l25.37-71.64-2.19-5.95,1.81-.48c1.97-.52,4.72-1.72,5.97-3.39l.51-.68h2.84l.3,1.33c.99,4.47,1.65,6.41,4.58,14.33l24.21,67.75c3.15,8.36,3.88,8.98,11.07,9.54l1.57.12v4.15ZM1439.38,514.31h8.66c-2.1-1.7-3.39-4.51-5.17-9.24l-24.22-67.76c-2.41-6.53-3.32-9.09-4.12-12.3-1.39,1.07-2.99,1.8-4.23,2.27l.97,2.64.46-1.3,17.95,50.96h-.04l9.78,27.47c.85,2.45,1.57,5,.18,6.97-.07.1-.14.19-.22.29ZM1378.85,514.31h7.82c-.65-.48-1.17-1.03-1.58-1.66-.96-1.47-1.16-3.16-.97-4.86-1.5,2.96-3.19,5.07-5.27,6.52ZM1398.45,476.17h26.42l-13.16-37.35-13.26,37.35Z"/>
    </g>
    <g>
      <path d="M1476.43,509.11v-77.52c0-4.77-1.76-5.52-10.54-6.02v-.88h33.49c30.23,0,51.81,16.93,51.81,44.53s-24.08,46.79-53.19,46.79h-32.11v-.88c8.78-.5,10.54-1.25,10.54-6.02ZM1499.39,514c23.21,0,43.53-14.93,43.53-41.77s-18.56-45.53-44.91-45.53h-14.17v81.41c0,4.52,1.25,5.9,15.55,5.9Z"/>
      <path d="M1498,517.71h-33.81v-4.18l1.6-.09c8.93-.51,8.93-1.24,8.93-4.32v-77.52c0-3.08,0-3.81-8.93-4.32l-1.6-.09v-4.18h35.19c32,0,53.51,18.58,53.51,46.23s-23.08,48.49-54.89,48.49ZM1476.47,514.31h9.1c-2.51-1.09-3.44-2.97-3.44-6.2v-81.71h-5.66c1.1,1.1,1.66,2.74,1.66,5.2v77.52c0,2.46-.56,4.09-1.66,5.2ZM1485.53,428.4v79.71c0,2.97,0,4.19,13.85,4.19,20.14,0,41.83-12.54,41.83-40.07,0-25.81-17.77-43.83-43.21-43.83h-12.47ZM1517.08,428.55c16.84,6.82,27.53,22.91,27.53,43.68,0,11.93-4.6,24.39-14.31,32.89,11.91-8.03,19.18-20.76,19.18-35.9,0-20.55-12.26-35.35-32.41-40.67Z"/>
    </g>
    <g>
      <path d="M1563.53,471.48c0-28.72,20.32-48.04,45.53-48.04s44.4,18.31,44.4,45.78-20.57,48.04-46.16,48.04-43.78-18.31-43.78-45.78ZM1609.32,515.13c20.2,0,35.75-17.06,35.75-42.9s-16.06-46.66-37.88-46.66c-19.94,0-35.25,17.19-35.25,42.9s16.06,46.66,37.38,46.66Z"/>
      <path d="M1607.31,518.96c-26.35,0-45.48-19.97-45.48-47.48s19.86-49.74,47.23-49.74,46.1,19.97,46.1,47.48-20.13,49.74-47.86,49.74ZM1584.97,432.09c-12.15,7.96-19.73,22.16-19.73,39.39,0,21.34,12.35,37.78,30.62,42.62-15.25-6.5-25.62-23.97-25.62-45.63,0-15.53,5.61-28.5,14.73-36.38ZM1607.18,427.27c-19.44,0-33.55,17.33-33.55,41.2,0,25.63,15.34,44.96,35.68,44.96s34.05-16.94,34.05-41.2c0-26.05-15.22-44.96-36.18-44.96ZM1621.03,426.69c15.33,6.57,25.74,23.98,25.74,45.54,0,15.38-5.58,28.25-14.67,36.15,12.12-8,19.67-22.1,19.67-39.16,0-21.21-12.38-37.58-30.74-42.53Z"/>
    </g>
    <g>
      <path d="M1671.82,509.11v-77.64c0-4.64-1.63-5.39-10.54-5.9v-.88h26.34c22.83,0,34.75,7.4,34.75,21.83s-13.92,21.07-23.46,23.21l20.45,30.48c7.02,10.66,11.92,14.55,17.94,14.93v.88c-2.13.25-5.02.5-7.02.5-6.65,0-10.79-2.01-17.31-12.42l-17.94-28.1c-2.89-4.52-4.26-5.14-7.4-5.14h-8.4v38.26c0,4.77,1.76,5.52,12.04,6.02v.88h-29.98v-.88c8.91-.5,10.54-1.25,10.54-6.02ZM1687.25,469.09c16.18,0,27.35-7.65,27.35-20.95,0-14.3-10.04-21.45-28.6-21.45h-6.77v42.4h8.03Z"/>
      <path d="M1730.27,518.21c-6.94,0-11.75-2.04-18.75-13.22l-17.93-28.09c-2.78-4.36-3.72-4.36-5.97-4.36h-6.7v36.56c0,3.08,0,3.81,10.42,4.32l1.62.08v4.2h-33.38v-4.19l1.61-.09c8.93-.5,8.93-1.16,8.93-4.32v-77.64c0-2.98,0-3.69-8.93-4.2l-1.61-.09v-4.19h28.04c30.12,0,36.45,12.79,36.45,23.53,0,15.77-14.17,21.99-22.4,24.27l19.1,28.47c6.58,9.99,11.09,13.83,16.63,14.18l1.59.1v3.99l-1.5.18c-2.11.25-5.12.51-7.22.51ZM1692.64,470.5c1.25.91,2.4,2.35,3.82,4.58l17.94,28.1c6.24,9.95,9.94,11.63,15.88,11.63h.15c-3.96-2.26-7.79-6.56-12.48-13.67l-21.03-31.35c-1.37.31-2.79.54-4.28.71ZM1671.93,514.31h7.31c-1.16-1.1-1.72-2.73-1.72-5.2v-82.72h-5.56c1.05,1.08,1.56,2.68,1.56,5.07v77.64c0,2.46-.53,4.09-1.6,5.2ZM1680.92,467.39h6.33c15.82,0,25.65-7.38,25.65-19.25,0-13.1-9.05-19.75-26.9-19.75h-5.07v39ZM1703.59,428c10.13,4.37,12.71,12.75,12.71,20.15,0,6.91-2.87,12.59-7.97,16.53,6.42-3.2,12.35-8.72,12.35-18.16s-5.73-15.79-17.08-18.52Z"/>
    </g>
  </g>
  <g>
    <path d="M674.33,597.77c-.32-1-.75-1.91-1.28-2.71-.53-.8-1.17-1.48-1.91-2.05-.74-.57-1.58-1-2.52-1.3-.94-.3-1.98-.45-3.1-.45-1.91,0-3.63.49-5.16,1.47-1.53.98-2.75,2.42-3.63,4.31-.89,1.89-1.33,4.21-1.33,6.94s.45,5.07,1.34,6.97c.89,1.9,2.12,3.34,3.67,4.32,1.56.98,3.33,1.47,5.31,1.47,1.84,0,3.45-.38,4.83-1.13,1.37-.75,2.44-1.81,3.19-3.19.75-1.37,1.13-2.99,1.13-4.86l1.33.25h-9.7v-4.22h13.32v3.86c0,2.85-.6,5.32-1.81,7.41-1.21,2.09-2.87,3.7-5,4.84-2.12,1.14-4.55,1.7-7.29,1.7-3.07,0-5.76-.71-8.07-2.12-2.31-1.41-4.11-3.42-5.4-6.01s-1.94-5.69-1.94-9.26c0-2.7.38-5.13,1.13-7.28.75-2.15,1.81-3.98,3.17-5.48,1.36-1.51,2.97-2.66,4.82-3.46,1.85-.8,3.87-1.2,6.07-1.2,1.83,0,3.54.27,5.12.81s3,1.31,4.24,2.3c1.24.99,2.27,2.17,3.09,3.53.82,1.36,1.37,2.87,1.65,4.53h-5.25Z"/>
    <path d="M694.75,620.96v-33.89h21.25v4.4h-16.14v10.33h15.03v4.39h-15.03v10.38h16.33v4.4h-21.45Z"/>
    <path d="M748.83,595.97c-.18-1.57-.91-2.78-2.19-3.65s-2.89-1.3-4.83-1.3c-1.39,0-2.59.22-3.61.65-1.02.44-1.8,1.03-2.36,1.79s-.84,1.61-.84,2.57c0,.81.19,1.5.57,2.09.38.59.88,1.07,1.51,1.47.62.39,1.29.72,2.01.98.72.26,1.41.47,2.07.64l3.31.86c1.08.26,2.19.62,3.33,1.07,1.14.45,2.19,1.05,3.16,1.79.97.74,1.76,1.65,2.36,2.75.6,1.09.9,2.4.9,3.92,0,1.92-.49,3.63-1.48,5.11-.99,1.49-2.41,2.67-4.29,3.53-1.87.86-4.13,1.29-6.78,1.29s-4.73-.4-6.59-1.21c-1.85-.8-3.3-1.95-4.35-3.43s-1.63-3.25-1.74-5.29h5.13c.1,1.23.5,2.24,1.2,3.05.7.81,1.6,1.41,2.7,1.8,1.1.39,2.3.59,3.62.59,1.45,0,2.73-.23,3.87-.69,1.13-.46,2.02-1.1,2.67-1.92s.98-1.79.98-2.89c0-1-.28-1.83-.85-2.47-.57-.64-1.33-1.17-2.3-1.59-.96-.42-2.05-.79-3.27-1.11l-4-1.09c-2.71-.74-4.86-1.83-6.45-3.26-1.58-1.43-2.37-3.33-2.37-5.69,0-1.95.53-3.66,1.59-5.11,1.06-1.46,2.49-2.59,4.3-3.4,1.81-.81,3.85-1.22,6.12-1.22s4.32.4,6.08,1.21,3.15,1.91,4.16,3.32c1.02,1.41,1.54,3.02,1.59,4.84h-4.93Z"/>
    <path d="M766.39,591.46v-4.4h26.23v4.4h-10.58v29.49h-5.1v-29.49h-10.56Z"/>
    <path d="M805.03,620.96h-5.43l12.2-33.89h5.91l12.2,33.89h-5.43l-9.58-27.74h-.27l-9.6,27.74ZM805.94,607.68h17.61v4.3h-17.61v-4.3ZM809.78,583.7l-3.34-.12c0-1.82.5-3.28,1.49-4.37.99-1.09,2.21-1.64,3.66-1.66.68,0,1.28.11,1.79.34.51.23.98.49,1.42.79.44.3.89.56,1.34.79s.95.34,1.51.34c.63-.01,1.14-.26,1.55-.74.4-.48.6-1.08.6-1.8l3.28.22c-.01,1.84-.51,3.29-1.5,4.34-.99,1.05-2.2,1.58-3.65,1.58-.78,0-1.43-.11-1.95-.34-.52-.23-.98-.49-1.37-.78s-.81-.55-1.22-.78c-.42-.22-.92-.34-1.51-.34s-1.11.24-1.5.71c-.39.47-.59,1.08-.59,1.8Z"/>
    <path d="M870.86,604.01c0,3.62-.66,6.73-1.99,9.33-1.32,2.6-3.14,4.6-5.44,5.99-2.3,1.4-4.91,2.09-7.84,2.09s-5.55-.7-7.85-2.09c-2.3-1.4-4.11-3.39-5.44-6-1.32-2.6-1.99-5.71-1.99-9.32s.66-6.73,1.99-9.32c1.33-2.6,3.14-4.6,5.44-5.99,2.3-1.4,4.92-2.09,7.85-2.09s5.54.7,7.84,2.09c2.3,1.4,4.11,3.39,5.44,5.99,1.33,2.6,1.99,5.71,1.99,9.32ZM865.79,604.01c0-2.76-.45-5.08-1.33-6.98-.89-1.89-2.1-3.33-3.64-4.3-1.54-.98-3.28-1.47-5.22-1.47s-3.7.49-5.23,1.47-2.75,2.41-3.63,4.3c-.89,1.89-1.33,4.22-1.33,6.98s.44,5.08,1.33,6.98c.89,1.89,2.1,3.33,3.63,4.3s3.28,1.47,5.23,1.47,3.68-.49,5.22-1.47c1.54-.98,2.75-2.41,3.64-4.3.89-1.89,1.33-4.22,1.33-6.98Z"/>
    <path d="M906.34,620.96v-33.89h21.25v4.4h-16.14v10.33h15.03v4.39h-15.03v10.38h16.33v4.4h-21.45Z"/>
    <path d="M942.38,587.06h6.21l10.79,26.35h.4l10.79-26.35h6.21v33.89h-4.87v-24.53h-.31l-10,24.48h-4.04l-10-24.49h-.31v24.54h-4.87v-33.89Z"/>
    <path d="M992.79,620.96v-33.89h12.08c2.64,0,4.82.48,6.55,1.44,1.73.96,3.03,2.27,3.89,3.93s1.29,3.53,1.29,5.6-.43,3.96-1.3,5.62c-.87,1.66-2.17,2.97-3.91,3.94s-3.92,1.45-6.54,1.45h-8.31v-4.34h7.84c1.67,0,3.02-.29,4.06-.87,1.04-.58,1.8-1.37,2.28-2.38.49-1,.73-2.15.73-3.43s-.24-2.41-.73-3.41-1.25-1.77-2.29-2.33-2.41-.84-4.11-.84h-6.42v29.51h-5.11Z"/>
    <path d="M1030.28,620.96v-33.89h12.08c2.62,0,4.81.45,6.54,1.36,1.74.91,3.04,2.15,3.9,3.75s1.29,3.43,1.29,5.52-.43,3.9-1.3,5.47-2.17,2.79-3.91,3.67c-1.74.87-3.92,1.31-6.54,1.31h-9.15v-4.4h8.69c1.66,0,3-.24,4.05-.71,1.04-.47,1.81-1.16,2.29-2.07s.73-1.99.73-3.26-.25-2.39-.74-3.33-1.26-1.66-2.3-2.16-2.41-.75-4.1-.75h-6.42v29.51h-5.11ZM1047.01,605.67l8.37,15.29h-5.83l-8.21-15.29h5.66Z"/>
    <path d="M1068.94,620.96v-33.89h21.25v4.4h-16.14v10.33h15.03v4.39h-15.03v10.38h16.33v4.4h-21.45Z"/>
    <path d="M1123.02,595.97c-.18-1.57-.91-2.78-2.19-3.65s-2.89-1.3-4.83-1.3c-1.39,0-2.59.22-3.61.65-1.02.44-1.8,1.03-2.36,1.79s-.84,1.61-.84,2.57c0,.81.19,1.5.57,2.09.38.59.88,1.07,1.51,1.47.62.39,1.29.72,2.01.98.72.26,1.41.47,2.07.64l3.31.86c1.08.26,2.19.62,3.33,1.07,1.14.45,2.19,1.05,3.16,1.79.97.74,1.76,1.65,2.36,2.75.6,1.09.9,2.4.9,3.92,0,1.92-.49,3.63-1.48,5.11-.99,1.49-2.41,2.67-4.29,3.53-1.87.86-4.13,1.29-6.78,1.29s-4.73-.4-6.59-1.21c-1.85-.8-3.3-1.95-4.35-3.43s-1.63-3.25-1.74-5.29h5.13c.1,1.23.5,2.24,1.2,3.05.7.81,1.6,1.41,2.7,1.8,1.1.39,2.3.59,3.62.59,1.45,0,2.73-.23,3.87-.69,1.13-.46,2.02-1.1,2.67-1.92s.98-1.79.98-2.89c0-1-.28-1.83-.85-2.47-.57-.64-1.33-1.17-2.3-1.59-.96-.42-2.05-.79-3.27-1.11l-4-1.09c-2.71-.74-4.86-1.83-6.45-3.26-1.58-1.43-2.37-3.33-2.37-5.69,0-1.95.53-3.66,1.59-5.11,1.06-1.46,2.49-2.59,4.3-3.4,1.81-.81,3.85-1.22,6.12-1.22s4.32.4,6.08,1.21,3.15,1.91,4.16,3.32c1.02,1.41,1.54,3.02,1.59,4.84h-4.93Z"/>
    <path d="M1145.11,620.96h-5.43l12.2-33.89h5.91l12.2,33.89h-5.43l-9.58-27.74h-.27l-9.6,27.74ZM1146.02,607.68h17.61v4.3h-17.61v-4.3Z"/>
    <path d="M1183.16,620.96v-33.89h12.08c2.62,0,4.81.45,6.54,1.36,1.74.91,3.04,2.15,3.9,3.75s1.29,3.43,1.29,5.52-.43,3.9-1.3,5.47-2.17,2.79-3.91,3.67c-1.74.87-3.92,1.31-6.54,1.31h-9.15v-4.4h8.69c1.66,0,3-.24,4.05-.71,1.04-.47,1.81-1.16,2.29-2.07s.73-1.99.73-3.26-.25-2.39-.74-3.33-1.26-1.66-2.3-2.16-2.41-.75-4.1-.75h-6.42v29.51h-5.11ZM1199.89,605.67l8.37,15.29h-5.83l-8.21-15.29h5.66Z"/>
    <path d="M1226.9,587.06v33.89h-5.11v-33.89h5.11Z"/>
    <path d="M1245.48,620.96h-5.43l12.2-33.89h5.91l12.2,33.89h-5.43l-9.58-27.74h-.27l-9.6,27.74ZM1246.39,607.68h17.61v4.3h-17.61v-4.3Z"/>
    <path d="M1283.53,620.96v-33.89h5.11v29.49h15.36v4.4h-20.47Z"/>
  </g>
  <g>
    <g>
      <path d="M276.5,502.96l1.38-66.48c.12-9.53-2.13-10.29-11.79-10.91v-.88h21.45c1.25,3.76,2.76,8.03,4.51,12.79l24.46,66.36,23.58-63.97c2.01-5.52,4.26-12.17,4.77-15.18h20.57v.88c-8.78.5-10.66,1.25-10.54,6.02l1.51,77.52c.12,4.77,1.63,5.52,10.54,6.02v.88h-28.47v-.88c8.78-.5,10.66-1.25,10.54-6.02l-1.76-80.91-32.61,87.81h-1.25l-32.61-88.06-1.63,75.01c-.25,9.53,2.01,11.54,13.8,12.17v.88h-28.35v-.88c9.66-.63,11.79-2.63,11.92-12.17Z"/>
      <path d="M280.74,422.99h8.02l.39,1.16c1.24,3.72,2.75,8.01,4.5,12.75l22.86,62.03,21.99-59.64c2.63-7.22,4.29-12.51,4.68-14.87l.24-1.42h23.71v4.19l-1.6.09c-9.03.52-9.01,1.24-8.93,4.28l1.51,77.53c.08,3.19.1,3.86,8.93,4.36l1.61.09v4.19h-31.88v-4.19l1.6-.09c9.03-.52,9.01-1.24,8.93-4.28l-1.56-72.01-29.92,80.56h-3.62l-29.92-80.79-1.44,66.08c-.22,8.17.74,9.82,12.19,10.43l1.61.09v4.19h-31.75v-4.17l1.59-.1c8.86-.57,10.21-1.95,10.33-10.49h0s1.38-66.49,1.38-66.49c.11-8.23-.91-8.58-10.2-9.18l-1.59-.1v-4.17h14.78M349.13,514.31h7.24c-1.09-1.1-1.61-2.72-1.67-5.15l-1.51-77.53c-.06-2.48.47-4.12,1.57-5.23h-5.86l1.79,82.68c.07,2.48-.47,4.13-1.57,5.24ZM274.45,514.31h6.78c-1.87-1.25-2.98-3.12-3.49-5.92-.52,2.74-1.53,4.63-3.29,5.92ZM282,426.39l32.01,86.42,2.01-5.41-25.56-69.33c-1.58-4.29-2.97-8.21-4.14-11.68h-4.32ZM276.71,426.39c1.09.9,1.85,2.14,2.3,3.88l.08-3.88h-2.39Z"/>
    </g>
    <g>
      <path d="M447.43,507.6l-9.78-27.47h-32.74l-8.4,23.71c-2.63,7.15-1.13,10.66,9.53,11.29v.88h-25.21v-.88c6.15-.63,9.79-3.26,13.05-11.92l25.59-72.25-1.76-4.77c2.38-.63,5.39-2.01,6.9-4.01h.63c1,4.52,1.63,6.4,4.64,14.55l24.21,67.74c3.26,8.65,4.39,10.04,12.54,10.66v.88h-28.6v-.88c10.54-.13,11.41-1.76,9.41-7.53ZM436.89,477.87l-15.55-44.15-15.68,44.15h31.23Z"/>
      <path d="M468.32,517.71h-32v-4.26l1.68-.02c1.86-.02,7.54-.09,8.43-1.36.45-.64-.13-2.53-.61-3.9l-9.38-26.33h-30.34l-8,22.58c-1.16,3.16-1.34,5.18-.55,6.37.97,1.48,3.86,2.37,8.58,2.65l1.6.09v4.18h-28.62v-4.12l1.53-.16c5.09-.52,8.45-2.4,11.63-10.82l25.37-71.64-2.19-5.94,1.81-.48c1.97-.52,4.72-1.72,5.97-3.39l.51-.68h2.84l.3,1.33c.99,4.46,1.65,6.41,4.58,14.33l24.21,67.75c3.15,8.36,3.88,8.99,11.07,9.54l1.57.12v4.15ZM449,514.31h8.66c-2.1-1.7-3.39-4.51-5.17-9.24l-24.22-67.76c-2.41-6.53-3.32-9.09-4.12-12.3-1.39,1.07-2.99,1.8-4.23,2.27l.97,2.64.46-1.3,17.95,50.95h-.04l9.78,27.47c.85,2.45,1.57,5,.18,6.98-.07.1-.14.19-.22.29ZM388.47,514.31h7.82c-.65-.48-1.17-1.03-1.58-1.66-.96-1.47-1.16-3.16-.97-4.86-1.5,2.96-3.19,5.07-5.27,6.52ZM408.07,476.17h26.42l-13.16-37.35-13.26,37.35Z"/>
    </g>
    <g>
      <path d="M500.76,509.11v-82.41h-11.16c-13.42,0-17.06,2.76-22.83,18.06h-.75l4.14-20.82c2.51.5,6.77.75,11.79.75h44.91c5.02,0,9.28-.25,11.79-.75l4.26,20.82h-.88c-5.77-15.3-9.41-18.06-22.71-18.06h-11.16v82.41c0,4.77,1.76,5.52,10.54,6.02v.88h-28.47v-.88c8.78-.5,10.54-1.25,10.54-6.02Z"/>
      <path d="M520.4,517.71h-31.88v-4.19l1.6-.09c8.93-.51,8.93-1.24,8.93-4.32v-80.71h-9.46c-12.76,0-15.74,2.38-21.24,16.96l-.42,1.1h-4l4.88-24.53,1.67.33c2.32.46,6.39.72,11.46.72h44.91c5.07,0,9.14-.26,11.46-.72l1.66-.33,5.02,24.52h-4.14l-.42-1.1c-5.5-14.58-8.46-16.96-21.11-16.96h-9.46v80.71c0,3.08,0,3.81,8.93,4.32l1.6.09v4.19ZM500.8,514.31h7.32c-1.1-1.1-1.66-2.74-1.66-5.2v-82.72h-4v82.72c0,2.46-.56,4.1-1.66,5.2ZM530.39,426.35c3.6,1.25,6.19,3.54,8.55,7.49l-1.63-7.96c-1.83.24-4.18.4-6.92.47ZM471.51,425.88l-1.56,7.84c2.35-3.87,4.93-6.12,8.51-7.37-2.75-.07-5.12-.23-6.96-.47Z"/>
    </g>
    <g>
      <path d="M622.67,509.11v-38.26h-52.81v38.26c0,4.77,1.76,5.52,10.54,6.02v.88h-28.47v-.88c8.78-.5,10.54-1.25,10.54-6.02v-77.52c0-4.77-1.76-5.52-10.54-6.02v-.88h28.47v.88c-8.78.5-10.54,1.25-10.54,6.02v37h52.81v-37c0-4.77-1.76-5.52-10.54-6.02v-.88h28.47v.88c-8.78.5-10.54,1.25-10.54,6.02v77.52c0,4.77,1.76,5.52,10.54,6.02v.88h-28.47v-.88c8.78-.5,10.54-1.25,10.54-6.02Z"/>
      <path d="M642.31,517.71h-31.88v-4.19l1.6-.09c8.93-.51,8.93-1.24,8.93-4.32v-36.56h-49.41v36.56c0,3.08,0,3.81,8.93,4.32l1.6.09v4.19h-31.88v-4.19l1.6-.09c8.93-.51,8.93-1.24,8.93-4.32v-77.52c0-3.08,0-3.81-8.93-4.32l-1.6-.09v-4.19h31.88v4.19l-1.6.09c-8.93.51-8.93,1.24-8.93,4.32v35.3h49.41v-35.3c0-3.08,0-3.81-8.93-4.32l-1.6-.09v-4.19h31.88v4.19l-1.6.09c-8.93.51-8.93,1.24-8.93,4.32v77.52c0,3.08,0,3.81,8.93,4.32l1.6.09v4.19ZM622.71,514.31h7.33c-1.1-1.1-1.66-2.74-1.66-5.2v-77.52c0-2.46.56-4.1,1.66-5.2h-7.33c1.1,1.1,1.66,2.74,1.66,5.2v77.52c0,2.46-.56,4.1-1.66,5.2ZM562.5,514.31h7.32c-1.1-1.1-1.66-2.74-1.66-5.2v-77.52c0-2.46.56-4.1,1.66-5.2h-7.32c1.1,1.1,1.66,2.74,1.66,5.2v77.52c0,2.46-.56,4.1-1.66,5.2Z"/>
    </g>
    <g>
      <path d="M667.22,509.11v-77.52c0-4.77-1.76-5.52-10.54-6.02v-.88h60.96l3.89,20.07h-.88c-5.39-14.55-9.28-18.06-22.95-18.06h-23.08v42.02h19.07c11.16,0,13.42-3.14,15.3-14.68h.88v31.86h-.88c-1.88-12.17-4.14-15.18-15.3-15.18h-19.07v38.38c0,3.39,1.76,4.89,5.39,4.89h20.57c12.42,0,17.06-3.39,24.84-19.32h.88l-6.4,21.32h-63.22v-.88c8.78-.5,10.54-1.25,10.54-6.02Z"/>
      <path d="M721.17,517.71h-66.19v-4.19l1.6-.09c8.93-.51,8.93-1.24,8.93-4.32v-77.52c0-3.08,0-3.81-8.93-4.32l-1.6-.09v-4.19h64.07l4.55,23.47h-4.12l-.41-1.11c-5.29-14.26-8.68-16.95-21.36-16.95h-21.38v38.62h17.37c9.75,0,11.79-1.98,13.62-13.25l.23-1.43h4.03v35.26h-4.04l-.22-1.44c-1.83-11.81-3.73-13.74-13.62-13.74h-17.37v36.68c0,2.07.59,3.19,3.69,3.19h20.57c11.11,0,15.52-2.41,23.31-18.36l.47-.96h4.23l-7.42,24.73ZM710.89,514.31h7.74l2.61-8.71c-3.16,4.61-6.31,7.28-10.36,8.71ZM667.26,514.31h7.8c-1.68-1.32-2.14-3.37-2.14-5.2v-82.72h-5.66c1.1,1.1,1.66,2.74,1.66,5.2v77.52c0,2.46-.56,4.1-1.66,5.2ZM700.76,469.73c3.68.93,5.9,2.85,7.41,6.1v-12.07c-1.51,3.18-3.73,5.06-7.41,5.97ZM708.65,426.39c4,1.36,6.73,3.81,9.09,7.75l-1.5-7.75h-7.59Z"/>
    </g>
    <g>
      <path d="M745.64,483.64v-52.06c0-4.77-1.76-5.52-10.66-6.02v-.88h28.47v.88c-8.78.5-10.54,1.25-10.54,6.02v51.3c0,21.7,10.29,30.86,26.72,30.86s27.85-8.03,27.85-30.61v-45.41c0-9.53-2.26-11.54-14.17-12.17v-.88h28.72v.88c-9.66.63-11.92,2.63-11.92,12.17v45.41c0,24.08-12.79,34.12-32.99,34.12s-31.48-9.91-31.48-33.62Z"/>
      <path d="M777.12,518.96c-21.71,0-33.18-12.21-33.18-35.32v-52.06c0-3.08,0-3.81-9.06-4.32l-1.61-.09v-4.19h31.88v4.19l-1.6.09c-8.93.51-8.93,1.24-8.93,4.32v51.3c0,19.35,8.42,29.15,25.02,29.15,17.59,0,26.15-9.45,26.15-28.9v-45.41c0-8.2-1.01-9.86-12.56-10.47l-1.61-.09v-4.19h32.13v4.17l-1.59.1c-8.98.58-10.33,1.95-10.33,10.47v45.41c0,23.43-12,35.82-34.69,35.82ZM745.66,426.39c1.11,1.1,1.68,2.74,1.68,5.2v52.06c0,21.18,10.02,31.92,29.78,31.92,1.29,0,2.54-.04,3.75-.13-.41,0-.82.01-1.24.01-12.96,0-28.42-5.65-28.42-32.56v-51.3c0-2.46.56-4.1,1.66-5.2h-7.21ZM805.06,426.39c2.05,1.31,3.18,3.23,3.71,6.06.48-2.82,1.49-4.75,3.3-6.06h-7.01Z"/>
    </g>
    <g>
      <path d="M837.81,512.62c-1.25,0-1.76.88-2.26,3.39h-.88l-2.88-23.96h.88c4.77,15.05,13.55,23.33,26.72,23.33s22.2-7.65,22.2-19.94c0-8.4-5.02-15.55-18.56-21.2l-7.4-3.14c-14.3-6.15-19.69-14.93-19.69-23.83,0-14.55,11.16-23.83,24.08-23.83,10.16,0,16.31,4.64,18.69,4.64,1.26,0,1.63-.88,2.26-3.39h.88l2.38,21.83h-.88c-4.39-13.8-13.42-21.2-23.33-21.2s-18.31,6.02-18.31,17.81c0,8.15,3.89,14.93,17.81,20.82l7.4,3.14c14.42,6.15,20.32,14.8,20.32,24.46,0,14.68-11.79,25.71-27.85,25.71-11.79,0-19.19-4.64-21.58-4.64Z"/>
      <path d="M859.38,518.96c-8.44,0-14.74-2.31-18.51-3.68-1.23-.45-2.62-.96-3.06-.96h-.08s0,0,0,0c.06,0-.18.36-.51,2.01l-.27,1.37h-3.78l-3.29-27.36h4.04l.38,1.19c4.65,14.69,13.1,22.14,25.1,22.14s20.5-7.16,20.5-18.24c0-8.41-5.57-14.65-17.52-19.63l-7.41-3.14c-17.13-7.37-20.73-17.88-20.73-25.4,0-14.56,11.09-25.53,25.78-25.53,7.19,0,12.37,2.17,15.8,3.61,1.11.47,2.36.99,2.84,1.02.24-.43.55-1.67.65-2.1l.32-1.29h3.73l2.76,25.23h-4.02l-.38-1.19c-3.99-12.53-12.1-20.01-21.71-20.01-7.66,0-16.61,4.22-16.61,16.11,0,6.01,1.99,13,16.77,19.26l7.4,3.14c14.17,6.04,21.36,14.8,21.36,26.03,0,15.63-12.7,27.42-29.55,27.42ZM837.81,510.92c1.04,0,2.31.46,4.23,1.17.87.32,1.85.68,2.94,1.04-4.14-2.64-7.6-6.6-10.36-11.85l1.23,10.24c.5-.37,1.14-.59,1.96-.59ZM842.19,433.43c-3.02,3.96-4.56,8.91-4.56,13.84,0,9.32,6.45,17.02,18.66,22.27l7.39,3.13c13.19,5.49,19.6,12.94,19.6,22.76,0,3.9-.87,7.42-2.49,10.43,3.01-3.92,4.73-8.82,4.73-14.32,0-9.74-6.49-17.44-19.29-22.89l-7.4-3.13c-13.04-5.52-18.85-12.42-18.85-22.39,0-3.82.81-7.04,2.19-9.7ZM872.8,427.78c3.42,2.44,6.4,5.9,8.78,10.24l-.96-8.82c-.49.36-1.11.57-1.92.57-1.12,0-2.41-.54-4.2-1.29-.52-.22-1.09-.46-1.7-.7Z"/>
    </g>
  </g>
  <g>
    <rect x="914.72" y="465.7" width="76.02" height="8.05"/>
    <path d="M992.43,475.45h-79.42v-11.45h79.42v11.45ZM916.42,472.04h72.61v-4.65h-72.61v4.65Z"/>
  </g>
</svg>