<?xml version="1.0" encoding="UTF-8"?>
<svg id="Layer_2" data-name="Layer 2" xmlns="http://www.w3.org/2000/svg" viewBox="0 0 1053.07 281.9">
  <defs>
    <style>
      .cls-1 {
        fill: #fff;
      }
    </style>
  </defs>
  <g id="Layer_1-2" data-name="Layer 1">
    <g>
      <g>
        <g>
          <path d="M330.99,168.09c0-28.98,21.83-48.29,45.91-48.29,18.31,0,26.34,7.28,28.98,7.28,1.63,0,2.51-1.13,3.01-6.02h.75l3.14,26.22h-.88c-6.4-18.94-20.7-25.34-35-25.34-20.57,0-37.51,16.56-37.51,42.52,0,28.35,17.06,45.16,38.88,45.16,15.93,0,28.22-10.03,35.75-24.71l1.13.5c-7.28,16.18-21.32,28.22-41.02,28.22-23.58,0-43.15-18.19-43.15-45.53Z"/>
          <path d="M374.14,215.33c-25.57,0-44.85-20.31-44.85-47.23,0-14.07,5.12-26.93,14.42-36.22,8.9-8.88,20.69-13.78,33.19-13.78,13.67,0,21.83,3.97,26.22,6.1,1.11.54,2.37,1.15,2.76,1.18.56,0,1-1.51,1.31-4.49l.16-1.53h3.8l3.54,29.62h-4.01l-.39-1.16c-6.75-19.99-21.88-24.18-33.39-24.18-20.75,0-35.8,17.17-35.8,40.82,0,25.99,14.94,43.46,37.18,43.46,14.21,0,26.37-8.45,34.24-23.79l.73-1.43,4.16,1.85-.7,1.56c-8.35,18.57-23.87,29.23-42.57,29.23ZM353.44,128.29c-13.29,8.67-20.75,24.41-20.75,39.8,0,24.99,17.82,43.83,41.45,43.83,3,0,5.91-.3,8.71-.88-1.5.18-3.03.27-4.57.27-24.28,0-40.58-18.83-40.58-46.86,0-15.46,6-28.36,15.75-36.16ZM396.3,124.89c5.69,3.15,10.33,7.86,13.76,13.99l-1.35-11.3c-.66.75-1.57,1.2-2.83,1.2-1.12,0-2.36-.6-4.24-1.52-1.37-.67-3.13-1.52-5.33-2.37Z"/>
        </g>
        <g>
          <path d="M425.19,167.84c0-28.72,20.32-48.04,45.53-48.04s44.4,18.31,44.4,45.78-20.57,48.04-46.16,48.04-43.78-18.31-43.78-45.78ZM470.97,211.5c20.2,0,35.75-17.06,35.75-42.9s-16.06-46.66-37.88-46.66c-19.94,0-35.25,17.19-35.25,42.9s16.06,46.66,37.38,46.66Z"/>
          <path d="M468.97,215.33c-26.35,0-45.48-19.97-45.48-47.48s19.86-49.74,47.23-49.74,46.1,19.97,46.1,47.48-20.13,49.74-47.86,49.74ZM446.62,128.46c-12.15,7.96-19.73,22.16-19.73,39.39,0,21.34,12.35,37.78,30.62,42.62-15.25-6.5-25.62-23.97-25.62-45.63,0-15.53,5.61-28.5,14.73-36.38ZM468.84,123.63c-19.44,0-33.55,17.33-33.55,41.2,0,25.63,15.34,44.96,35.68,44.96s34.05-16.94,34.05-41.2c0-26.05-15.22-44.96-36.18-44.96ZM482.69,123.05c15.33,6.57,25.74,23.98,25.74,45.54,0,15.38-5.58,28.25-14.67,36.15,12.12-8,19.67-22.1,19.67-39.16,0-21.21-12.38-37.58-30.74-42.53Z"/>
        </g>
        <g>
          <path d="M534.01,199.33v-65.23c0-9.53-2.26-11.54-11.92-12.17v-.88h18.44l54.82,77.9v-64.85c0-9.53-2.26-11.54-15.43-12.17v-.88h29.98v.88c-9.66.63-11.92,2.63-11.92,12.17v79.53h-.88l-60.46-84.92v70.62c0,9.53,2.26,11.54,15.43,12.17v.88h-29.98v-.88c9.66-.63,11.92-2.63,11.92-12.17Z"/>
          <path d="M599.68,215.33h-3.46l-57.88-81.3v65.3c0,8.2,1.11,9.86,13.81,10.47l1.62.08v4.2h-33.38v-4.17l1.59-.1c8.98-.58,10.33-1.95,10.33-10.47v-65.23c0-8.52-1.35-9.89-10.33-10.47l-1.59-.1v-4.17h21.02l52.23,74.22v-59.48c0-8.2-1.11-9.87-13.81-10.47l-1.62-.08v-4.2h33.38v4.17l-1.59.1c-8.98.58-10.33,1.95-10.33,10.47v81.23ZM532.05,210.67h7.16c-2.07-1.28-3.28-3.21-3.85-6.15-.48,2.86-1.49,4.82-3.31,6.15ZM534.94,123.38l61.34,86.15v-6.3l-56.63-80.48h-7.6c1.4,1.02,2.32,2.42,2.89,4.32v-3.69ZM592.78,122.76c2.07,1.28,3.28,3.21,3.85,6.15.48-2.87,1.49-4.82,3.31-6.15h-7.16Z"/>
        </g>
        <g>
          <path d="M647.32,205.47v-82.41h-11.16c-13.42,0-17.06,2.76-22.83,18.06h-.75l4.14-20.82c2.51.5,6.77.75,11.79.75h44.91c5.02,0,9.28-.25,11.79-.75l4.26,20.82h-.88c-5.77-15.3-9.41-18.06-22.71-18.06h-11.16v82.41c0,4.77,1.76,5.52,10.54,6.02v.88h-28.47v-.88c8.78-.5,10.54-1.25,10.54-6.02Z"/>
          <path d="M666.96,214.07h-31.88v-4.18l1.6-.09c8.93-.51,8.93-1.24,8.93-4.32v-80.71h-9.46c-12.76,0-15.74,2.38-21.24,16.96l-.42,1.1h-4l4.88-24.52,1.67.33c2.32.46,6.39.72,11.46.72h44.91c5.07,0,9.14-.26,11.46-.72l1.66-.33,5.02,24.52h-4.14l-.42-1.1c-5.5-14.58-8.46-16.96-21.11-16.96h-9.46v80.71c0,3.08,0,3.81,8.93,4.32l1.6.09v4.18ZM647.36,210.67h7.32c-1.1-1.1-1.66-2.74-1.66-5.2v-82.72h-4v82.72c0,2.46-.56,4.09-1.66,5.2ZM676.95,122.71c3.6,1.25,6.18,3.54,8.55,7.49l-1.63-7.96c-1.83.24-4.18.4-6.92.47ZM618.07,122.24l-1.56,7.84c2.35-3.87,4.93-6.12,8.51-7.36-2.75-.07-5.12-.23-6.95-.47Z"/>
        </g>
        <g>
          <path d="M750.58,203.97l-9.78-27.47h-32.74l-8.4,23.71c-2.63,7.15-1.13,10.66,9.53,11.29v.88h-25.21v-.88c6.15-.63,9.79-3.26,13.05-11.92l25.59-72.25-1.76-4.77c2.38-.63,5.39-2.01,6.9-4.01h.63c1,4.52,1.63,6.4,4.64,14.55l24.21,67.74c3.26,8.65,4.39,10.04,12.54,10.66v.88h-28.6v-.88c10.54-.13,11.41-1.76,9.41-7.53ZM740.05,174.24l-15.55-44.15-15.68,44.15h31.23Z"/>
          <path d="M771.48,214.07h-32v-4.26l1.68-.02c1.86-.02,7.54-.09,8.43-1.36.45-.64-.13-2.53-.61-3.9l-9.38-26.33h-30.34l-8,22.57c-1.16,3.16-1.34,5.18-.55,6.37.97,1.48,3.86,2.37,8.58,2.65l1.6.09v4.18h-28.62v-4.11l1.53-.16c5.09-.52,8.45-2.4,11.63-10.82l25.37-71.64-2.19-5.95,1.81-.48c1.97-.52,4.72-1.72,5.97-3.39l.51-.68h2.84l.3,1.33c.99,4.47,1.65,6.41,4.58,14.33l24.21,67.75c3.15,8.36,3.88,8.98,11.07,9.54l1.57.12v4.15ZM752.15,210.67h8.66c-2.1-1.7-3.39-4.51-5.17-9.24l-24.22-67.76c-2.41-6.53-3.32-9.09-4.12-12.3-1.39,1.07-2.99,1.8-4.23,2.27l.97,2.64.46-1.3,17.95,50.96h-.04l9.78,27.47c.85,2.45,1.57,5,.18,6.97-.07.1-.14.19-.22.29ZM691.62,210.67h7.82c-.65-.48-1.17-1.03-1.58-1.66-.96-1.47-1.16-3.16-.97-4.86-1.5,2.96-3.19,5.07-5.27,6.52ZM711.22,172.54h26.42l-13.16-37.35-13.26,37.35Z"/>
        </g>
        <g>
          <path d="M789.2,205.47v-77.52c0-4.77-1.76-5.52-10.54-6.02v-.88h33.49c30.23,0,51.81,16.93,51.81,44.53s-24.08,46.79-53.19,46.79h-32.11v-.88c8.78-.5,10.54-1.25,10.54-6.02ZM812.16,210.37c23.21,0,43.53-14.93,43.53-41.77s-18.56-45.53-44.91-45.53h-14.17v81.41c0,4.52,1.25,5.9,15.55,5.9Z"/>
          <path d="M810.78,214.07h-33.81v-4.18l1.6-.09c8.93-.51,8.93-1.24,8.93-4.32v-77.52c0-3.08,0-3.81-8.93-4.32l-1.6-.09v-4.18h35.19c32,0,53.51,18.58,53.51,46.23s-23.08,48.49-54.89,48.49ZM789.24,210.67h9.1c-2.51-1.09-3.44-2.97-3.44-6.2v-81.71h-5.66c1.1,1.1,1.66,2.74,1.66,5.2v77.52c0,2.46-.56,4.09-1.66,5.2ZM798.31,124.76v79.71c0,2.97,0,4.19,13.85,4.19,20.14,0,41.83-12.54,41.83-40.07,0-25.81-17.77-43.83-43.21-43.83h-12.47ZM829.85,124.92c16.84,6.82,27.53,22.91,27.53,43.68,0,11.93-4.6,24.39-14.31,32.89,11.91-8.03,19.18-20.76,19.18-35.9,0-20.55-12.26-35.35-32.41-40.67Z"/>
        </g>
        <g>
          <path d="M876.31,167.84c0-28.72,20.32-48.04,45.53-48.04s44.4,18.31,44.4,45.78-20.57,48.04-46.16,48.04-43.78-18.31-43.78-45.78ZM922.09,211.5c20.2,0,35.75-17.06,35.75-42.9s-16.06-46.66-37.88-46.66c-19.94,0-35.25,17.19-35.25,42.9s16.06,46.66,37.38,46.66Z"/>
          <path d="M920.08,215.33c-26.35,0-45.48-19.97-45.48-47.48s19.86-49.74,47.23-49.74,46.1,19.97,46.1,47.48-20.13,49.74-47.86,49.74ZM897.74,128.46c-12.15,7.96-19.73,22.16-19.73,39.39,0,21.34,12.35,37.78,30.62,42.62-15.25-6.5-25.62-23.97-25.62-45.63,0-15.53,5.61-28.5,14.73-36.38ZM919.96,123.63c-19.44,0-33.55,17.33-33.55,41.2,0,25.63,15.34,44.96,35.68,44.96s34.05-16.94,34.05-41.2c0-26.05-15.22-44.96-36.18-44.96ZM933.8,123.05c15.33,6.57,25.74,23.98,25.74,45.54,0,15.38-5.58,28.25-14.67,36.15,12.12-8,19.67-22.1,19.67-39.16,0-21.21-12.38-37.58-30.74-42.53Z"/>
        </g>
        <g>
          <path d="M984.59,205.47v-77.64c0-4.64-1.63-5.39-10.54-5.9v-.88h26.34c22.83,0,34.75,7.4,34.75,21.83s-13.92,21.07-23.46,23.21l20.45,30.48c7.02,10.66,11.92,14.55,17.94,14.93v.88c-2.13.25-5.02.5-7.02.5-6.65,0-10.79-2.01-17.31-12.42l-17.94-28.1c-2.89-4.52-4.26-5.14-7.4-5.14h-8.4v38.26c0,4.77,1.76,5.52,12.04,6.02v.88h-29.98v-.88c8.91-.5,10.54-1.25,10.54-6.02ZM1000.02,165.46c16.18,0,27.35-7.65,27.35-20.95,0-14.3-10.04-21.45-28.6-21.45h-6.77v42.4h8.03Z"/>
          <path d="M1043.05,214.58c-6.94,0-11.75-2.04-18.75-13.22l-17.93-28.09c-2.78-4.36-3.72-4.36-5.97-4.36h-6.7v36.56c0,3.08,0,3.81,10.42,4.32l1.62.08v4.2h-33.38v-4.19l1.61-.09c8.93-.5,8.93-1.16,8.93-4.32v-77.64c0-2.98,0-3.69-8.93-4.2l-1.61-.09v-4.19h28.04c30.12,0,36.45,12.79,36.45,23.53,0,15.77-14.17,21.99-22.4,24.27l19.1,28.47c6.58,9.99,11.09,13.83,16.63,14.18l1.59.1v3.99l-1.5.18c-2.11.25-5.12.51-7.22.51ZM1005.41,166.87c1.25.91,2.4,2.35,3.82,4.58l17.94,28.1c6.24,9.95,9.94,11.63,15.88,11.63h.15c-3.96-2.26-7.79-6.56-12.48-13.67l-21.03-31.35c-1.37.31-2.79.54-4.28.71ZM984.7,210.67h7.31c-1.16-1.1-1.72-2.73-1.72-5.2v-82.72h-5.56c1.05,1.08,1.56,2.68,1.56,5.07v77.64c0,2.46-.53,4.09-1.6,5.2ZM993.7,163.76h6.33c15.82,0,25.65-7.38,25.65-19.25,0-13.1-9.05-19.75-26.9-19.75h-5.07v39ZM1016.36,124.37c10.13,4.37,12.71,12.75,12.71,20.15,0,6.91-2.87,12.59-7.97,16.53,6.42-3.2,12.35-8.72,12.35-18.16s-5.73-15.79-17.08-18.52Z"/>
        </g>
      </g>
      <g>
        <path d="M343.84,263.85c-.21-.66-.49-1.25-.84-1.78-.35-.52-.77-.97-1.25-1.35-.48-.37-1.04-.66-1.66-.85-.62-.2-1.3-.29-2.04-.29-1.25,0-2.38.32-3.39.97-1.01.64-1.8,1.59-2.38,2.83-.58,1.24-.87,2.76-.87,4.55s.29,3.33.88,4.57c.59,1.25,1.39,2.19,2.41,2.83,1.02.64,2.18.97,3.48.97,1.21,0,2.26-.25,3.17-.74.9-.49,1.6-1.19,2.09-2.09.5-.9.74-1.96.74-3.19l.87.16h-6.36v-2.77h8.74v2.53c0,1.87-.4,3.49-1.19,4.86-.79,1.37-1.89,2.43-3.28,3.17-1.39.75-2.99,1.12-4.78,1.12-2.01,0-3.78-.46-5.29-1.39-1.52-.93-2.7-2.24-3.54-3.95s-1.27-3.73-1.27-6.07c0-1.77.25-3.36.74-4.78.49-1.41,1.19-2.61,2.08-3.6.89-.99,1.95-1.74,3.16-2.27,1.21-.52,2.54-.79,3.98-.79,1.2,0,2.32.18,3.36.53s1.96.86,2.78,1.51c.81.65,1.49,1.42,2.02,2.32.54.89.9,1.88,1.08,2.97h-3.44Z"/>
        <path d="M357.23,279.05v-22.23h13.94v2.89h-10.58v6.77h9.86v2.88h-9.86v6.81h10.71v2.89h-14.07Z"/>
        <path d="M392.7,262.66c-.12-1.03-.59-1.83-1.43-2.39s-1.9-.85-3.17-.85c-.91,0-1.7.14-2.37.43-.67.29-1.18.68-1.55,1.17s-.55,1.06-.55,1.69c0,.53.12.98.37,1.37.25.38.58.7.99.96.41.26.85.47,1.32.64.47.17.92.31,1.36.42l2.17.56c.71.17,1.44.41,2.18.71.75.3,1.44.69,2.07,1.17.64.48,1.15,1.08,1.55,1.8.39.72.59,1.57.59,2.57,0,1.26-.32,2.38-.97,3.35-.65.98-1.58,1.75-2.81,2.31-1.23.56-2.71.85-4.45.85s-3.1-.26-4.32-.79c-1.22-.53-2.17-1.28-2.85-2.25s-1.07-2.13-1.14-3.47h3.37c.06.8.33,1.47.79,2,.46.53,1.05.93,1.77,1.18.72.26,1.51.39,2.37.39.95,0,1.79-.15,2.54-.45.74-.3,1.33-.72,1.75-1.26s.64-1.17.64-1.89c0-.66-.19-1.2-.56-1.62-.37-.42-.88-.77-1.51-1.04-.63-.28-1.35-.52-2.14-.73l-2.63-.72c-1.78-.48-3.19-1.2-4.23-2.14-1.04-.94-1.56-2.19-1.56-3.73,0-1.28.35-2.4,1.04-3.35.7-.96,1.64-1.7,2.82-2.23,1.19-.53,2.53-.8,4.02-.8s2.83.26,3.99.79,2.06,1.25,2.73,2.18c.67.92,1.01,1.98,1.04,3.17h-3.23Z"/>
        <path d="M404.22,259.71v-2.89h17.21v2.89h-6.94v19.34h-3.34v-19.34h-6.93Z"/>
        <path d="M429.56,279.05h-3.56l8-22.23h3.88l8,22.23h-3.56l-6.29-18.19h-.17l-6.3,18.19ZM430.16,270.35h11.55v2.82h-11.55v-2.82ZM432.68,254.62l-2.19-.08c0-1.19.33-2.15.98-2.87.65-.72,1.45-1.08,2.4-1.09.45,0,.84.07,1.17.22.33.15.64.32.93.52.29.2.58.37.88.52s.63.22.99.22c.41,0,.75-.17,1.02-.48.26-.31.4-.71.4-1.18l2.15.14c0,1.21-.33,2.16-.98,2.85-.65.69-1.45,1.04-2.39,1.04-.51,0-.94-.07-1.28-.22-.34-.15-.64-.32-.9-.51s-.53-.36-.8-.51c-.28-.15-.6-.22-.99-.22s-.73.16-.98.47c-.26.31-.39.71-.39,1.18Z"/>
        <path d="M472.74,267.94c0,2.37-.43,4.41-1.3,6.12-.87,1.7-2.06,3.01-3.57,3.93-1.51.92-3.22,1.37-5.14,1.37s-3.64-.46-5.15-1.37c-1.51-.92-2.7-2.23-3.57-3.93-.87-1.71-1.3-3.75-1.3-6.11s.43-4.41,1.3-6.12c.87-1.71,2.06-3.01,3.57-3.93,1.51-.92,3.23-1.37,5.15-1.37s3.63.46,5.14,1.37c1.51.92,2.7,2.22,3.57,3.93.87,1.7,1.3,3.74,1.3,6.12ZM469.42,267.94c0-1.81-.29-3.33-.87-4.58-.58-1.24-1.38-2.18-2.39-2.82-1.01-.64-2.15-.96-3.42-.96s-2.42.32-3.43.96-1.8,1.58-2.38,2.82c-.58,1.24-.87,2.77-.87,4.58s.29,3.33.87,4.58c.58,1.24,1.38,2.18,2.38,2.82s2.15.96,3.43.96,2.42-.32,3.42-.96c1.01-.64,1.81-1.58,2.39-2.82.58-1.24.87-2.77.87-4.58Z"/>
        <path d="M496.01,279.05v-22.23h13.94v2.89h-10.58v6.77h9.86v2.88h-9.86v6.81h10.71v2.89h-14.07Z"/>
        <path d="M519.65,256.82h4.07l7.08,17.28h.26l7.08-17.28h4.07v22.23h-3.19v-16.09h-.21l-6.56,16.06h-2.65l-6.56-16.07h-.21v16.1h-3.19v-22.23Z"/>
        <path d="M552.72,279.05v-22.23h7.92c1.73,0,3.16.31,4.3.94,1.14.63,1.99,1.49,2.55,2.58s.85,2.31.85,3.67-.28,2.6-.85,3.69c-.57,1.09-1.42,1.95-2.56,2.58s-2.57.95-4.29.95h-5.45v-2.84h5.15c1.09,0,1.98-.19,2.66-.57.68-.38,1.18-.9,1.5-1.56.32-.66.48-1.41.48-2.25s-.16-1.58-.48-2.24-.82-1.16-1.5-1.53-1.58-.55-2.7-.55h-4.21v19.36h-3.35Z"/>
        <path d="M577.31,279.05v-22.23h7.92c1.72,0,3.15.3,4.29.89,1.14.59,1.99,1.41,2.56,2.46s.85,2.25.85,3.62-.28,2.56-.85,3.59-1.42,1.83-2.56,2.4c-1.14.57-2.57.86-4.29.86h-6v-2.89h5.7c1.09,0,1.97-.16,2.65-.47.68-.31,1.19-.76,1.5-1.36s.48-1.31.48-2.14-.16-1.57-.48-2.18-.83-1.09-1.51-1.42-1.58-.49-2.69-.49h-4.21v19.36h-3.35ZM588.29,269.02l5.49,10.03h-3.82l-5.38-10.03h3.71Z"/>
        <path d="M602.67,279.05v-22.23h13.94v2.89h-10.58v6.77h9.86v2.88h-9.86v6.81h10.71v2.89h-14.07Z"/>
        <path d="M638.14,262.66c-.12-1.03-.59-1.83-1.43-2.39s-1.9-.85-3.17-.85c-.91,0-1.7.14-2.37.43-.67.29-1.18.68-1.55,1.17s-.55,1.06-.55,1.69c0,.53.12.98.37,1.37.25.38.58.7.99.96.41.26.85.47,1.32.64.47.17.92.31,1.36.42l2.17.56c.71.17,1.44.41,2.18.71.75.3,1.44.69,2.07,1.17.64.48,1.15,1.08,1.55,1.8.39.72.59,1.57.59,2.57,0,1.26-.32,2.38-.97,3.35-.65.98-1.58,1.75-2.81,2.31-1.23.56-2.71.85-4.45.85s-3.1-.26-4.32-.79c-1.22-.53-2.17-1.28-2.85-2.25s-1.07-2.13-1.14-3.47h3.37c.06.8.33,1.47.79,2,.46.53,1.05.93,1.77,1.18.72.26,1.51.39,2.37.39.95,0,1.79-.15,2.54-.45.74-.3,1.33-.72,1.75-1.26s.64-1.17.64-1.89c0-.66-.19-1.2-.56-1.62-.37-.42-.88-.77-1.51-1.04-.63-.28-1.35-.52-2.14-.73l-2.63-.72c-1.78-.48-3.19-1.2-4.23-2.14-1.04-.94-1.56-2.19-1.56-3.73,0-1.28.35-2.4,1.04-3.35.7-.96,1.64-1.7,2.82-2.23,1.19-.53,2.53-.8,4.02-.8s2.83.26,3.99.79,2.06,1.25,2.73,2.18c.67.92,1.01,1.98,1.04,3.17h-3.23Z"/>
        <path d="M652.63,279.05h-3.56l8-22.23h3.88l8,22.23h-3.56l-6.29-18.19h-.17l-6.3,18.19ZM653.23,270.35h11.55v2.82h-11.55v-2.82Z"/>
        <path d="M677.59,279.05v-22.23h7.92c1.72,0,3.15.3,4.29.89,1.14.59,1.99,1.41,2.56,2.46s.85,2.25.85,3.62-.28,2.56-.85,3.59-1.42,1.83-2.56,2.4c-1.14.57-2.57.86-4.29.86h-6v-2.89h5.7c1.09,0,1.97-.16,2.65-.47.68-.31,1.19-.76,1.5-1.36s.48-1.31.48-2.14-.16-1.57-.48-2.18-.83-1.09-1.51-1.42-1.58-.49-2.69-.49h-4.21v19.36h-3.35ZM688.56,269.02l5.49,10.03h-3.82l-5.38-10.03h3.71Z"/>
        <path d="M706.28,256.82v22.23h-3.35v-22.23h3.35Z"/>
        <path d="M718.47,279.05h-3.56l8-22.23h3.88l8,22.23h-3.56l-6.29-18.19h-.17l-6.3,18.19ZM719.07,270.35h11.55v2.82h-11.55v-2.82Z"/>
        <path d="M743.42,279.05v-22.23h3.35v19.34h10.07v2.89h-13.43Z"/>
      </g>
      <g>
        <g>
          <path d="M340.27,83.01l1.38-66.48c.12-9.53-2.13-10.29-11.79-10.91v-.88h21.45c1.25,3.76,2.76,8.03,4.51,12.79l24.46,66.36,23.58-63.97c2.01-5.52,4.26-12.17,4.77-15.18h20.57v.88c-8.78.5-10.66,1.25-10.54,6.02l1.51,77.52c.12,4.77,1.63,5.52,10.54,6.02v.88h-28.47v-.88c8.78-.5,10.66-1.25,10.54-6.02l-1.76-80.91-32.61,87.81h-1.25L344.54,8l-1.63,75.01c-.25,9.53,2.01,11.54,13.8,12.17v.88h-28.35v-.88c9.66-.63,11.79-2.63,11.92-12.17Z"/>
          <path d="M344.51,3.03h8.02l.39,1.16c1.24,3.72,2.75,8.01,4.5,12.75l22.86,62.03,21.99-59.64c2.63-7.22,4.29-12.51,4.68-14.87l.24-1.42h23.71v4.19l-1.6.09c-9.03.52-9.01,1.24-8.93,4.28l1.51,77.53c.08,3.19.1,3.86,8.93,4.36l1.61.09v4.19h-31.88v-4.19l1.6-.09c9.03-.52,9.01-1.24,8.93-4.28l-1.56-72.01-29.92,80.56h-3.62l-29.92-80.79-1.44,66.08c-.22,8.17.74,9.82,12.19,10.43l1.61.09v4.19h-31.75v-4.17l1.59-.1c8.86-.57,10.21-1.95,10.33-10.49h0s1.38-66.49,1.38-66.49c.11-8.23-.91-8.58-10.2-9.18l-1.59-.1V3.03h14.78M412.9,94.35h7.24c-1.09-1.1-1.61-2.72-1.67-5.15l-1.51-77.53c-.06-2.48.47-4.12,1.57-5.23h-5.86l1.79,82.68c.07,2.48-.47,4.13-1.57,5.24ZM338.23,94.35h6.78c-1.87-1.25-2.98-3.12-3.49-5.92-.52,2.74-1.53,4.63-3.29,5.92ZM345.77,6.43l32.01,86.42,2.01-5.41-25.56-69.33c-1.58-4.29-2.97-8.21-4.14-11.68h-4.32ZM340.48,6.43c1.09.9,1.85,2.14,2.3,3.88l.08-3.88h-2.39Z"/>
        </g>
        <g>
          <path d="M511.2,87.65l-9.78-27.47h-32.74l-8.4,23.71c-2.63,7.15-1.13,10.66,9.53,11.29v.88h-25.21v-.88c6.15-.63,9.79-3.26,13.05-11.92l25.59-72.25-1.76-4.77c2.38-.63,5.39-2.01,6.9-4.01h.63c1,4.52,1.63,6.4,4.64,14.55l24.21,67.74c3.26,8.65,4.39,10.04,12.54,10.66v.88h-28.6v-.88c10.54-.13,11.41-1.76,9.41-7.53ZM500.67,57.92l-15.55-44.15-15.68,44.15h31.23Z"/>
          <path d="M532.1,97.75h-32v-4.26l1.68-.02c1.86-.02,7.54-.09,8.43-1.36.45-.64-.13-2.53-.61-3.9l-9.38-26.33h-30.34l-8,22.58c-1.16,3.16-1.34,5.18-.55,6.37.97,1.48,3.86,2.37,8.58,2.65l1.6.09v4.18h-28.62v-4.12l1.53-.16c5.09-.52,8.45-2.4,11.63-10.82l25.37-71.64-2.19-5.94,1.81-.48c1.97-.52,4.72-1.72,5.97-3.39l.51-.68h2.84l.3,1.33c.99,4.46,1.65,6.41,4.58,14.33l24.21,67.75c3.15,8.36,3.88,8.99,11.07,9.54l1.57.12v4.15ZM512.77,94.35h8.66c-2.1-1.7-3.39-4.51-5.17-9.24l-24.22-67.76c-2.41-6.53-3.32-9.09-4.12-12.3-1.39,1.07-2.99,1.8-4.23,2.27l.97,2.64.46-1.3,17.95,50.95h-.04l9.78,27.47c.85,2.45,1.57,5,.18,6.98-.07.1-.14.19-.22.29ZM452.24,94.35h7.82c-.65-.48-1.17-1.03-1.58-1.66-.96-1.47-1.16-3.16-.97-4.86-1.5,2.96-3.19,5.07-5.27,6.52ZM471.84,56.22h26.42l-13.16-37.35-13.26,37.35Z"/>
        </g>
        <g>
          <path d="M564.54,89.15V6.74h-11.16c-13.42,0-17.06,2.76-22.83,18.06h-.75l4.14-20.82c2.51.5,6.77.75,11.79.75h44.91c5.02,0,9.28-.25,11.79-.75l4.26,20.82h-.88c-5.77-15.3-9.41-18.06-22.71-18.06h-11.16v82.41c0,4.77,1.76,5.52,10.54,6.02v.88h-28.47v-.88c8.78-.5,10.54-1.25,10.54-6.02Z"/>
          <path d="M584.18,97.75h-31.88v-4.19l1.6-.09c8.93-.51,8.93-1.24,8.93-4.32V8.44h-9.46c-12.76,0-15.74,2.38-21.24,16.96l-.42,1.1h-4l4.88-24.53,1.67.33c2.32.46,6.39.72,11.46.72h44.91c5.07,0,9.14-.26,11.46-.72l1.66-.33,5.02,24.52h-4.14l-.42-1.1c-5.5-14.58-8.46-16.96-21.11-16.96h-9.46v80.71c0,3.08,0,3.81,8.93,4.32l1.6.09v4.19ZM564.58,94.35h7.32c-1.1-1.1-1.66-2.74-1.66-5.2V6.43h-4v82.72c0,2.46-.56,4.1-1.66,5.2ZM594.16,6.39c3.6,1.25,6.19,3.54,8.55,7.49l-1.63-7.96c-1.83.24-4.18.4-6.92.47ZM535.28,5.92l-1.56,7.84c2.35-3.87,4.93-6.12,8.51-7.37-2.75-.07-5.12-.23-6.96-.47Z"/>
        </g>
        <g>
          <path d="M686.45,89.15v-38.26h-52.81v38.26c0,4.77,1.76,5.52,10.54,6.02v.88h-28.47v-.88c8.78-.5,10.54-1.25,10.54-6.02V11.63c0-4.77-1.76-5.52-10.54-6.02v-.88h28.47v.88c-8.78.5-10.54,1.25-10.54,6.02v37h52.81V11.63c0-4.77-1.76-5.52-10.54-6.02v-.88h28.47v.88c-8.78.5-10.54,1.25-10.54,6.02v77.52c0,4.77,1.76,5.52,10.54,6.02v.88h-28.47v-.88c8.78-.5,10.54-1.25,10.54-6.02Z"/>
          <path d="M706.09,97.75h-31.88v-4.19l1.6-.09c8.93-.51,8.93-1.24,8.93-4.32v-36.56h-49.41v36.56c0,3.08,0,3.81,8.93,4.32l1.6.09v4.19h-31.88v-4.19l1.6-.09c8.93-.51,8.93-1.24,8.93-4.32V11.63c0-3.08,0-3.81-8.93-4.32l-1.6-.09V3.03h31.88v4.19l-1.6.09c-8.93.51-8.93,1.24-8.93,4.32v35.3h49.41V11.63c0-3.08,0-3.81-8.93-4.32l-1.6-.09V3.03h31.88v4.19l-1.6.09c-8.93.51-8.93,1.24-8.93,4.32v77.52c0,3.08,0,3.81,8.93,4.32l1.6.09v4.19ZM686.49,94.35h7.33c-1.1-1.1-1.66-2.74-1.66-5.2V11.63c0-2.46.56-4.1,1.66-5.2h-7.33c1.1,1.1,1.66,2.74,1.66,5.2v77.52c0,2.46-.56,4.1-1.66,5.2ZM626.28,94.35h7.32c-1.1-1.1-1.66-2.74-1.66-5.2V11.63c0-2.46.56-4.1,1.66-5.2h-7.32c1.1,1.1,1.66,2.74,1.66,5.2v77.52c0,2.46-.56,4.1-1.66,5.2Z"/>
        </g>
        <g>
          <path d="M730.99,89.15V11.63c0-4.77-1.76-5.52-10.54-6.02v-.88h60.96l3.89,20.07h-.88c-5.39-14.55-9.28-18.06-22.95-18.06h-23.08v42.02h19.07c11.16,0,13.42-3.14,15.3-14.68h.88v31.86h-.88c-1.88-12.17-4.14-15.18-15.3-15.18h-19.07v38.38c0,3.39,1.76,4.89,5.39,4.89h20.57c12.42,0,17.06-3.39,24.84-19.32h.88l-6.4,21.32h-63.22v-.88c8.78-.5,10.54-1.25,10.54-6.02Z"/>
          <path d="M784.94,97.75h-66.19v-4.19l1.6-.09c8.93-.51,8.93-1.24,8.93-4.32V11.63c0-3.08,0-3.81-8.93-4.32l-1.6-.09V3.03h64.07l4.55,23.47h-4.12l-.41-1.11c-5.29-14.26-8.68-16.95-21.36-16.95h-21.38v38.62h17.37c9.75,0,11.79-1.98,13.62-13.25l.23-1.43h4.03v35.26h-4.04l-.22-1.44c-1.83-11.81-3.73-13.74-13.62-13.74h-17.37v36.68c0,2.07.59,3.19,3.69,3.19h20.57c11.11,0,15.52-2.41,23.31-18.36l.47-.96h4.23l-7.42,24.73ZM774.66,94.35h7.74l2.61-8.71c-3.16,4.61-6.31,7.28-10.36,8.71ZM731.03,94.35h7.8c-1.68-1.32-2.14-3.37-2.14-5.2V6.43h-5.66c1.1,1.1,1.66,2.74,1.66,5.2v77.52c0,2.46-.56,4.1-1.66,5.2ZM764.53,49.77c3.68.93,5.9,2.85,7.41,6.1v-12.07c-1.51,3.18-3.73,5.06-7.41,5.97ZM772.43,6.43c4,1.36,6.73,3.81,9.09,7.75l-1.5-7.75h-7.59Z"/>
        </g>
        <g>
          <path d="M809.41,63.69V11.63c0-4.77-1.76-5.52-10.66-6.02v-.88h28.47v.88c-8.78.5-10.54,1.25-10.54,6.02v51.3c0,21.7,10.29,30.86,26.72,30.86s27.85-8.03,27.85-30.61V17.78c0-9.53-2.26-11.54-14.17-12.17v-.88h28.72v.88c-9.66.63-11.92,2.63-11.92,12.17v45.41c0,24.08-12.79,34.12-32.99,34.12s-31.48-9.91-31.48-33.62Z"/>
          <path d="M840.9,99.01c-21.71,0-33.18-12.21-33.18-35.32V11.63c0-3.08,0-3.81-9.06-4.32l-1.61-.09V3.03h31.88v4.19l-1.6.09c-8.93.51-8.93,1.24-8.93,4.32v51.3c0,19.35,8.42,29.15,25.02,29.15,17.59,0,26.15-9.45,26.15-28.9V17.78c0-8.2-1.01-9.86-12.56-10.47l-1.61-.09V3.03h32.13v4.17l-1.59.1c-8.98.58-10.33,1.95-10.33,10.47v45.41c0,23.43-12,35.82-34.69,35.82ZM809.44,6.43c1.11,1.1,1.68,2.74,1.68,5.2v52.06c0,21.18,10.02,31.92,29.78,31.92,1.29,0,2.54-.04,3.75-.13-.41,0-.82.01-1.24.01-12.96,0-28.42-5.65-28.42-32.56V11.63c0-2.46.56-4.1,1.66-5.2h-7.21ZM868.84,6.43c2.05,1.31,3.18,3.23,3.71,6.06.48-2.82,1.49-4.75,3.3-6.06h-7.01Z"/>
        </g>
        <g>
          <path d="M901.58,92.66c-1.25,0-1.76.88-2.26,3.39h-.88l-2.88-23.96h.88c4.77,15.05,13.55,23.33,26.72,23.33s22.2-7.65,22.2-19.94c0-8.4-5.02-15.55-18.56-21.2l-7.4-3.14c-14.3-6.15-19.69-14.93-19.69-23.83,0-14.55,11.16-23.83,24.08-23.83,10.16,0,16.31,4.64,18.69,4.64,1.26,0,1.63-.88,2.26-3.39h.88l2.38,21.83h-.88c-4.39-13.8-13.42-21.2-23.33-21.2s-18.31,6.02-18.31,17.81c0,8.15,3.89,14.93,17.81,20.82l7.4,3.14c14.42,6.15,20.32,14.8,20.32,24.46,0,14.68-11.79,25.71-27.85,25.71-11.79,0-19.19-4.64-21.58-4.64Z"/>
          <path d="M923.16,99.01c-8.44,0-14.74-2.31-18.51-3.68-1.23-.45-2.62-.96-3.06-.96h-.08s0,0,0,0c.06,0-.18.36-.51,2.01l-.27,1.37h-3.78l-3.29-27.36h4.04l.38,1.19c4.65,14.69,13.1,22.14,25.1,22.14s20.5-7.16,20.5-18.24c0-8.41-5.57-14.65-17.52-19.63l-7.41-3.14c-17.13-7.37-20.73-17.88-20.73-25.4,0-14.56,11.09-25.53,25.78-25.53,7.19,0,12.37,2.17,15.8,3.61,1.11.47,2.36.99,2.84,1.02.24-.43.55-1.67.65-2.1l.32-1.29h3.73l2.76,25.23h-4.02l-.38-1.19c-3.99-12.53-12.1-20.01-21.71-20.01-7.66,0-16.61,4.22-16.61,16.11,0,6.01,1.99,13,16.77,19.26l7.4,3.14c14.17,6.04,21.36,14.8,21.36,26.03,0,15.63-12.7,27.42-29.55,27.42ZM901.58,90.96c1.04,0,2.31.46,4.23,1.17.87.32,1.85.68,2.94,1.04-4.14-2.64-7.6-6.6-10.36-11.85l1.23,10.24c.5-.37,1.14-.59,1.96-.59ZM905.96,13.48c-3.02,3.96-4.56,8.91-4.56,13.84,0,9.32,6.45,17.02,18.66,22.27l7.39,3.13c13.19,5.49,19.6,12.94,19.6,22.76,0,3.9-.87,7.42-2.49,10.43,3.01-3.92,4.73-8.82,4.73-14.32,0-9.74-6.49-17.44-19.29-22.89l-7.4-3.13c-13.04-5.52-18.85-12.42-18.85-22.39,0-3.82.81-7.04,2.19-9.7ZM936.57,7.83c3.42,2.44,6.4,5.9,8.78,10.24l-.96-8.82c-.49.36-1.11.57-1.92.57-1.12,0-2.41-.54-4.2-1.29-.52-.22-1.09-.46-1.7-.7Z"/>
        </g>
      </g>
      <g>
        <rect x="975.36" y="48.66" width="76.02" height="8.05"/>
        <path d="M1053.07,58.41h-79.42v-11.45h79.42v11.45ZM977.06,55.01h72.61v-4.65h-72.61v4.65Z"/>
      </g>
    </g>
    <g>
      <rect x="0" width="281.9" height="281.9"/>
      <g>
        <path class="cls-1" d="M100.03,210.5c0-28.17,21.22-46.96,44.64-46.96,17.81,0,25.61,7.07,28.17,7.07,1.59,0,2.44-1.1,2.93-5.85h.73l3.05,25.49h-.85c-6.22-18.42-20.12-24.64-34.03-24.64-20,0-36.47,16.1-36.47,41.35,0,27.56,16.59,43.91,37.81,43.91,15.49,0,27.44-9.76,34.76-24.03l1.1.49c-7.07,15.73-20.74,27.44-39.88,27.44-22.93,0-41.96-17.68-41.96-44.27Z"/>
        <path class="cls-1" d="M141.99,255.77c-24.49,0-42.96-19.46-42.96-45.27,0-13.51,4.91-25.85,13.83-34.75,8.53-8.52,19.83-13.21,31.81-13.21,13.14,0,20.99,3.81,25.21,5.86,1.28.62,2.49,1.21,2.96,1.21.57,0,1.42,0,1.93-4.96l.09-.9h2.52l3.29,27.49h-2.7l-.23-.68c-6.69-19.8-21.68-23.96-33.08-23.96-20.55,0-35.47,16.97-35.47,40.35,0,25.67,14.79,42.91,36.81,42.91,14.08,0,26.1-8.34,33.87-23.48l.43-.84,2.88,1.28-.41.92c-8.01,17.81-22.88,28.03-40.8,28.03ZM144.67,164.54c-27.32,0-43.64,23.37-43.64,45.96,0,24.67,17.61,43.27,40.96,43.27,10.8,0,20.45-3.91,28.03-11.1-6.86,6.01-15.03,9.19-24,9.19-23.21,0-38.81-18.05-38.81-44.91,0-24.54,15.76-42.35,37.47-42.35,15.52,0,27.21,7.46,33.33,21.12l-2-16.73c-.58,1.69-1.51,2.61-3.16,2.61-.93,0-2.09-.56-3.84-1.41-4.07-1.98-11.65-5.66-24.34-5.66Z"/>
      </g>
      <path class="cls-1" d="M102.78,103.72l1.34-64.64c.12-9.27-2.07-10-11.47-10.61v-.85h20.86c1.22,3.66,2.68,7.81,4.39,12.44l23.78,64.52,22.93-62.2c1.95-5.37,4.15-11.83,4.63-14.76h20v.85c-8.54.49-10.37,1.22-10.25,5.85l1.46,75.38c.12,4.63,1.58,5.37,10.24,5.85v.85h-27.69v-.85c8.54-.49,10.37-1.22,10.24-5.85l-1.71-78.67-31.71,85.38h-1.22l-31.71-85.62-1.59,72.94c-.24,9.27,1.95,11.22,13.42,11.83v.85h-27.57v-.85c9.39-.61,11.47-2.56,11.59-11.83Z"/>
      <rect class="cls-1" x="104" y="136.7" width="73.91" height="6.81"/>
    </g>
  </g>
</svg>